<svg xmlns="http://www.w3.org/2000/svg" viewBox="0 0 1920 520" role="img" aria-label="VIP 출장마사지 전화 배너">
  <defs>
    <linearGradient id="gold" x1="0" x2="1" y1="0" y2="1">
      <stop offset="0" stop-color="#fff3b0"/>
      <stop offset="0.35" stop-color="#f6c650"/>
      <stop offset="0.7" stop-color="#b77a16"/>
      <stop offset="1" stop-color="#fff0a3"/>
    </linearGradient>
    <radialGradient id="glow" cx="50%" cy="50%" r="70%">
      <stop offset="0" stop-color="#73500f" stop-opacity="0.55"/>
      <stop offset="1" stop-color="#050608" stop-opacity="0"/>
    </radialGradient>
    <filter id="shadow" x="-20%" y="-20%" width="140%" height="140%">
      <feDropShadow dx="0" dy="8" stdDeviation="8" flood-color="#000" flood-opacity="0.55"/>
    </filter>
  </defs>
  <rect width="1920" height="520" fill="#050608"/>
  <rect width="1920" height="520" fill="url(#glow)"/>
  <path d="M0 438 C280 370 380 510 645 440 C882 377 1042 428 1245 378 C1522 309 1680 438 1920 348 L1920 520 L0 520 Z" fill="#11100d" opacity="0.85"/>
  <circle cx="1580" cy="84" r="4" fill="#fff4bd"/>
  <circle cx="1148" cy="162" r="5" fill="#fff4bd"/>
  <circle cx="480" cy="92" r="4" fill="#fff4bd"/>
  <text x="106" y="118" fill="url(#gold)" font-family="Arial, Apple SD Gothic Neo, Malgun Gothic, sans-serif" font-size="70" font-weight="900" letter-spacing="2">분당 · 성남 · 용인 전 지역</text>
  <text x="106" y="245" fill="#fff" font-family="Arial, Apple SD Gothic Neo, Malgun Gothic, sans-serif" font-size="126" font-weight="900" filter="url(#shadow)">VIP 출장마사지</text>
  <text x="112" y="325" fill="#f7d36d" font-family="Arial, Apple SD Gothic Neo, Malgun Gothic, sans-serif" font-size="54" font-weight="900">30분 이내 도착 · 24시간 상담 · 프리미엄 서비스</text>
  <rect x="90" y="376" width="1195" height="104" rx="34" fill="#0c0c0b" stroke="#e4b642" stroke-width="4"/>
  <circle cx="152" cy="428" r="35" fill="url(#gold)"/>
  <path d="M137 412c7 28 22 43 51 51l15-22-27-13-9 9c-9-5-15-11-20-20l9-9-13-27-22 15z" fill="#050608" transform="scale(.72) translate(70 168)"/>
  <text x="205" y="455" fill="url(#gold)" font-family="Arial, Apple SD Gothic Neo, Malgun Gothic, sans-serif" font-size="82" font-weight="900">0508-202-4683</text>
  <text x="780" y="437" fill="#fff" font-family="Arial, Apple SD Gothic Neo, Malgun Gothic, sans-serif" font-size="34" font-weight="800">전화하면 바로 연결</text>
  <text x="1080" y="437" fill="#fff" font-family="Arial, Apple SD Gothic Neo, Malgun Gothic, sans-serif" font-size="34" font-weight="800">100% 비밀보장</text>
  <g transform="translate(1510 62)">
    <path d="M70 0 L132 38 L132 190 L70 230 L8 190 L8 38 Z" fill="#12100d" stroke="url(#gold)" stroke-width="6"/>
    <text x="70" y="82" text-anchor="middle" fill="url(#gold)" font-family="Arial, serif" font-size="58" font-weight="900">VIP</text>
    <text x="70" y="126" text-anchor="middle" fill="#fff" font-family="Arial, Apple SD Gothic Neo, Malgun Gothic, sans-serif" font-size="25" font-weight="900">프리미엄</text>
    <text x="70" y="160" text-anchor="middle" fill="#fff" font-family="Arial, Apple SD Gothic Neo, Malgun Gothic, sans-serif" font-size="25" font-weight="900">서비스</text>
  </g>
</svg>
